<?xml version="1.0" encoding="utf-8" standalone="no"?>
<!DOCTYPE svg PUBLIC "-//W3C//DTD SVG 1.1//EN"
  "http://www.w3.org/Graphics/SVG/1.1/DTD/svg11.dtd">
<svg xmlns:xlink="http://www.w3.org/1999/xlink" width="720pt" height="360pt" viewBox="0 0 720 360" xmlns="http://www.w3.org/2000/svg" version="1.1">
 <metadata>
  <rdf:RDF xmlns:dc="http://purl.org/dc/elements/1.1/" xmlns:cc="http://creativecommons.org/ns#" xmlns:rdf="http://www.w3.org/1999/02/22-rdf-syntax-ns#">
   <cc:Work>
    <dc:type rdf:resource="http://purl.org/dc/dcmitype/StillImage"/>
    <dc:date>2025-04-10T19:37:02.782384</dc:date>
    <dc:format>image/svg+xml</dc:format>
    <dc:creator>
     <cc:Agent>
      <dc:title>Matplotlib v3.7.3, https://matplotlib.org/</dc:title>
     </cc:Agent>
    </dc:creator>
   </cc:Work>
  </rdf:RDF>
 </metadata>
 <defs>
  <style type="text/css">*{stroke-linejoin: round; stroke-linecap: butt}</style>
 </defs>
 <g id="figure_1">
  <g id="patch_1">
   <path d="M 0 360 
L 720 360 
L 720 0 
L 0 0 
z
" style="fill: #ffffff"/>
  </g>
  <g id="axes_1">
   <g id="patch_2">
    <path d="M 90 315 
L 648 315 
L 648 43.2 
L 90 43.2 
z
" style="fill: #ffffff"/>
   </g>
   <g id="matplotlib.axis_1">
    <g id="xtick_1">
     <g id="line2d_1">
      <defs>
       <path id="m64601d7ab9" d="M 0 0 
L 0 3.5 
" style="stroke: #000000; stroke-width: 0.8"/>
      </defs>
      <g>
       <use xlink:href="#m64601d7ab9" x="115.363636" y="315" style="stroke: #000000; stroke-width: 0.8"/>
      </g>
     </g>
     <g id="text_1">
      <!-- 0 -->
      <g transform="translate(112.182386 329.598437) scale(0.1 -0.1)">
       <defs>
        <path id="DejaVuSans-30" d="M 2034 4250 
Q 1547 4250 1301 3770 
Q 1056 3291 1056 2328 
Q 1056 1369 1301 889 
Q 1547 409 2034 409 
Q 2525 409 2770 889 
Q 3016 1369 3016 2328 
Q 3016 3291 2770 3770 
Q 2525 4250 2034 4250 
z
M 2034 4750 
Q 2819 4750 3233 4129 
Q 3647 3509 3647 2328 
Q 3647 1150 3233 529 
Q 2819 -91 2034 -91 
Q 1250 -91 836 529 
Q 422 1150 422 2328 
Q 422 3509 836 4129 
Q 1250 4750 2034 4750 
z
" transform="scale(0.015625)"/>
       </defs>
       <use xlink:href="#DejaVuSans-30"/>
      </g>
     </g>
    </g>
    <g id="xtick_2">
     <g id="line2d_2">
      <g>
       <use xlink:href="#m64601d7ab9" x="179.575374" y="315" style="stroke: #000000; stroke-width: 0.8"/>
      </g>
     </g>
     <g id="text_2">
      <!-- 10 -->
      <g transform="translate(173.212874 329.598437) scale(0.1 -0.1)">
       <defs>
        <path id="DejaVuSans-31" d="M 794 531 
L 1825 531 
L 1825 4091 
L 703 3866 
L 703 4441 
L 1819 4666 
L 2450 4666 
L 2450 531 
L 3481 531 
L 3481 0 
L 794 0 
L 794 531 
z
" transform="scale(0.015625)"/>
       </defs>
       <use xlink:href="#DejaVuSans-31"/>
       <use xlink:href="#DejaVuSans-30" x="63.623047"/>
      </g>
     </g>
    </g>
    <g id="xtick_3">
     <g id="line2d_3">
      <g>
       <use xlink:href="#m64601d7ab9" x="243.787112" y="315" style="stroke: #000000; stroke-width: 0.8"/>
      </g>
     </g>
     <g id="text_3">
      <!-- 20 -->
      <g transform="translate(237.424612 329.598437) scale(0.1 -0.1)">
       <defs>
        <path id="DejaVuSans-32" d="M 1228 531 
L 3431 531 
L 3431 0 
L 469 0 
L 469 531 
Q 828 903 1448 1529 
Q 2069 2156 2228 2338 
Q 2531 2678 2651 2914 
Q 2772 3150 2772 3378 
Q 2772 3750 2511 3984 
Q 2250 4219 1831 4219 
Q 1534 4219 1204 4116 
Q 875 4013 500 3803 
L 500 4441 
Q 881 4594 1212 4672 
Q 1544 4750 1819 4750 
Q 2544 4750 2975 4387 
Q 3406 4025 3406 3419 
Q 3406 3131 3298 2873 
Q 3191 2616 2906 2266 
Q 2828 2175 2409 1742 
Q 1991 1309 1228 531 
z
" transform="scale(0.015625)"/>
       </defs>
       <use xlink:href="#DejaVuSans-32"/>
       <use xlink:href="#DejaVuSans-30" x="63.623047"/>
      </g>
     </g>
    </g>
    <g id="xtick_4">
     <g id="line2d_4">
      <g>
       <use xlink:href="#m64601d7ab9" x="307.998849" y="315" style="stroke: #000000; stroke-width: 0.8"/>
      </g>
     </g>
     <g id="text_4">
      <!-- 30 -->
      <g transform="translate(301.636349 329.598437) scale(0.1 -0.1)">
       <defs>
        <path id="DejaVuSans-33" d="M 2597 2516 
Q 3050 2419 3304 2112 
Q 3559 1806 3559 1356 
Q 3559 666 3084 287 
Q 2609 -91 1734 -91 
Q 1441 -91 1130 -33 
Q 819 25 488 141 
L 488 750 
Q 750 597 1062 519 
Q 1375 441 1716 441 
Q 2309 441 2620 675 
Q 2931 909 2931 1356 
Q 2931 1769 2642 2001 
Q 2353 2234 1838 2234 
L 1294 2234 
L 1294 2753 
L 1863 2753 
Q 2328 2753 2575 2939 
Q 2822 3125 2822 3475 
Q 2822 3834 2567 4026 
Q 2313 4219 1838 4219 
Q 1578 4219 1281 4162 
Q 984 4106 628 3988 
L 628 4550 
Q 988 4650 1302 4700 
Q 1616 4750 1894 4750 
Q 2613 4750 3031 4423 
Q 3450 4097 3450 3541 
Q 3450 3153 3228 2886 
Q 3006 2619 2597 2516 
z
" transform="scale(0.015625)"/>
       </defs>
       <use xlink:href="#DejaVuSans-33"/>
       <use xlink:href="#DejaVuSans-30" x="63.623047"/>
      </g>
     </g>
    </g>
    <g id="xtick_5">
     <g id="line2d_5">
      <g>
       <use xlink:href="#m64601d7ab9" x="372.210587" y="315" style="stroke: #000000; stroke-width: 0.8"/>
      </g>
     </g>
     <g id="text_5">
      <!-- 40 -->
      <g transform="translate(365.848087 329.598437) scale(0.1 -0.1)">
       <defs>
        <path id="DejaVuSans-34" d="M 2419 4116 
L 825 1625 
L 2419 1625 
L 2419 4116 
z
M 2253 4666 
L 3047 4666 
L 3047 1625 
L 3713 1625 
L 3713 1100 
L 3047 1100 
L 3047 0 
L 2419 0 
L 2419 1100 
L 313 1100 
L 313 1709 
L 2253 4666 
z
" transform="scale(0.015625)"/>
       </defs>
       <use xlink:href="#DejaVuSans-34"/>
       <use xlink:href="#DejaVuSans-30" x="63.623047"/>
      </g>
     </g>
    </g>
    <g id="xtick_6">
     <g id="line2d_6">
      <g>
       <use xlink:href="#m64601d7ab9" x="436.422325" y="315" style="stroke: #000000; stroke-width: 0.8"/>
      </g>
     </g>
     <g id="text_6">
      <!-- 50 -->
      <g transform="translate(430.059825 329.598437) scale(0.1 -0.1)">
       <defs>
        <path id="DejaVuSans-35" d="M 691 4666 
L 3169 4666 
L 3169 4134 
L 1269 4134 
L 1269 2991 
Q 1406 3038 1543 3061 
Q 1681 3084 1819 3084 
Q 2600 3084 3056 2656 
Q 3513 2228 3513 1497 
Q 3513 744 3044 326 
Q 2575 -91 1722 -91 
Q 1428 -91 1123 -41 
Q 819 9 494 109 
L 494 744 
Q 775 591 1075 516 
Q 1375 441 1709 441 
Q 2250 441 2565 725 
Q 2881 1009 2881 1497 
Q 2881 1984 2565 2268 
Q 2250 2553 1709 2553 
Q 1456 2553 1204 2497 
Q 953 2441 691 2322 
L 691 4666 
z
" transform="scale(0.015625)"/>
       </defs>
       <use xlink:href="#DejaVuSans-35"/>
       <use xlink:href="#DejaVuSans-30" x="63.623047"/>
      </g>
     </g>
    </g>
    <g id="xtick_7">
     <g id="line2d_7">
      <g>
       <use xlink:href="#m64601d7ab9" x="500.634062" y="315" style="stroke: #000000; stroke-width: 0.8"/>
      </g>
     </g>
     <g id="text_7">
      <!-- 60 -->
      <g transform="translate(494.271562 329.598437) scale(0.1 -0.1)">
       <defs>
        <path id="DejaVuSans-36" d="M 2113 2584 
Q 1688 2584 1439 2293 
Q 1191 2003 1191 1497 
Q 1191 994 1439 701 
Q 1688 409 2113 409 
Q 2538 409 2786 701 
Q 3034 994 3034 1497 
Q 3034 2003 2786 2293 
Q 2538 2584 2113 2584 
z
M 3366 4563 
L 3366 3988 
Q 3128 4100 2886 4159 
Q 2644 4219 2406 4219 
Q 1781 4219 1451 3797 
Q 1122 3375 1075 2522 
Q 1259 2794 1537 2939 
Q 1816 3084 2150 3084 
Q 2853 3084 3261 2657 
Q 3669 2231 3669 1497 
Q 3669 778 3244 343 
Q 2819 -91 2113 -91 
Q 1303 -91 875 529 
Q 447 1150 447 2328 
Q 447 3434 972 4092 
Q 1497 4750 2381 4750 
Q 2619 4750 2861 4703 
Q 3103 4656 3366 4563 
z
" transform="scale(0.015625)"/>
       </defs>
       <use xlink:href="#DejaVuSans-36"/>
       <use xlink:href="#DejaVuSans-30" x="63.623047"/>
      </g>
     </g>
    </g>
    <g id="xtick_8">
     <g id="line2d_8">
      <g>
       <use xlink:href="#m64601d7ab9" x="564.8458" y="315" style="stroke: #000000; stroke-width: 0.8"/>
      </g>
     </g>
     <g id="text_8">
      <!-- 70 -->
      <g transform="translate(558.4833 329.598437) scale(0.1 -0.1)">
       <defs>
        <path id="DejaVuSans-37" d="M 525 4666 
L 3525 4666 
L 3525 4397 
L 1831 0 
L 1172 0 
L 2766 4134 
L 525 4134 
L 525 4666 
z
" transform="scale(0.015625)"/>
       </defs>
       <use xlink:href="#DejaVuSans-37"/>
       <use xlink:href="#DejaVuSans-30" x="63.623047"/>
      </g>
     </g>
    </g>
    <g id="xtick_9">
     <g id="line2d_9">
      <g>
       <use xlink:href="#m64601d7ab9" x="629.057537" y="315" style="stroke: #000000; stroke-width: 0.8"/>
      </g>
     </g>
     <g id="text_9">
      <!-- 80 -->
      <g transform="translate(622.695037 329.598437) scale(0.1 -0.1)">
       <defs>
        <path id="DejaVuSans-38" d="M 2034 2216 
Q 1584 2216 1326 1975 
Q 1069 1734 1069 1313 
Q 1069 891 1326 650 
Q 1584 409 2034 409 
Q 2484 409 2743 651 
Q 3003 894 3003 1313 
Q 3003 1734 2745 1975 
Q 2488 2216 2034 2216 
z
M 1403 2484 
Q 997 2584 770 2862 
Q 544 3141 544 3541 
Q 544 4100 942 4425 
Q 1341 4750 2034 4750 
Q 2731 4750 3128 4425 
Q 3525 4100 3525 3541 
Q 3525 3141 3298 2862 
Q 3072 2584 2669 2484 
Q 3125 2378 3379 2068 
Q 3634 1759 3634 1313 
Q 3634 634 3220 271 
Q 2806 -91 2034 -91 
Q 1263 -91 848 271 
Q 434 634 434 1313 
Q 434 1759 690 2068 
Q 947 2378 1403 2484 
z
M 1172 3481 
Q 1172 3119 1398 2916 
Q 1625 2713 2034 2713 
Q 2441 2713 2670 2916 
Q 2900 3119 2900 3481 
Q 2900 3844 2670 4047 
Q 2441 4250 2034 4250 
Q 1625 4250 1398 4047 
Q 1172 3844 1172 3481 
z
" transform="scale(0.015625)"/>
       </defs>
       <use xlink:href="#DejaVuSans-38"/>
       <use xlink:href="#DejaVuSans-30" x="63.623047"/>
      </g>
     </g>
    </g>
   </g>
   <g id="matplotlib.axis_2">
    <g id="ytick_1">
     <g id="line2d_10">
      <defs>
       <path id="mf73b2ca995" d="M 0 0 
L -3.5 0 
" style="stroke: #000000; stroke-width: 0.8"/>
      </defs>
      <g>
       <use xlink:href="#mf73b2ca995" x="90" y="315" style="stroke: #000000; stroke-width: 0.8"/>
      </g>
     </g>
     <g id="text_10">
      <!-- 0.00 -->
      <g transform="translate(60.734375 318.799219) scale(0.1 -0.1)">
       <defs>
        <path id="DejaVuSans-2e" d="M 684 794 
L 1344 794 
L 1344 0 
L 684 0 
L 684 794 
z
" transform="scale(0.015625)"/>
       </defs>
       <use xlink:href="#DejaVuSans-30"/>
       <use xlink:href="#DejaVuSans-2e" x="63.623047"/>
       <use xlink:href="#DejaVuSans-30" x="95.410156"/>
       <use xlink:href="#DejaVuSans-30" x="159.033203"/>
      </g>
     </g>
    </g>
    <g id="ytick_2">
     <g id="line2d_11">
      <g>
       <use xlink:href="#mf73b2ca995" x="90" y="281.025" style="stroke: #000000; stroke-width: 0.8"/>
      </g>
     </g>
     <g id="text_11">
      <!-- 0.05 -->
      <g transform="translate(60.734375 284.824219) scale(0.1 -0.1)">
       <use xlink:href="#DejaVuSans-30"/>
       <use xlink:href="#DejaVuSans-2e" x="63.623047"/>
       <use xlink:href="#DejaVuSans-30" x="95.410156"/>
       <use xlink:href="#DejaVuSans-35" x="159.033203"/>
      </g>
     </g>
    </g>
    <g id="ytick_3">
     <g id="line2d_12">
      <g>
       <use xlink:href="#mf73b2ca995" x="90" y="247.05" style="stroke: #000000; stroke-width: 0.8"/>
      </g>
     </g>
     <g id="text_12">
      <!-- 0.10 -->
      <g transform="translate(60.734375 250.849219) scale(0.1 -0.1)">
       <use xlink:href="#DejaVuSans-30"/>
       <use xlink:href="#DejaVuSans-2e" x="63.623047"/>
       <use xlink:href="#DejaVuSans-31" x="95.410156"/>
       <use xlink:href="#DejaVuSans-30" x="159.033203"/>
      </g>
     </g>
    </g>
    <g id="ytick_4">
     <g id="line2d_13">
      <g>
       <use xlink:href="#mf73b2ca995" x="90" y="213.075" style="stroke: #000000; stroke-width: 0.8"/>
      </g>
     </g>
     <g id="text_13">
      <!-- 0.15 -->
      <g transform="translate(60.734375 216.874219) scale(0.1 -0.1)">
       <use xlink:href="#DejaVuSans-30"/>
       <use xlink:href="#DejaVuSans-2e" x="63.623047"/>
       <use xlink:href="#DejaVuSans-31" x="95.410156"/>
       <use xlink:href="#DejaVuSans-35" x="159.033203"/>
      </g>
     </g>
    </g>
    <g id="ytick_5">
     <g id="line2d_14">
      <g>
       <use xlink:href="#mf73b2ca995" x="90" y="179.1" style="stroke: #000000; stroke-width: 0.8"/>
      </g>
     </g>
     <g id="text_14">
      <!-- 0.20 -->
      <g transform="translate(60.734375 182.899219) scale(0.1 -0.1)">
       <use xlink:href="#DejaVuSans-30"/>
       <use xlink:href="#DejaVuSans-2e" x="63.623047"/>
       <use xlink:href="#DejaVuSans-32" x="95.410156"/>
       <use xlink:href="#DejaVuSans-30" x="159.033203"/>
      </g>
     </g>
    </g>
    <g id="ytick_6">
     <g id="line2d_15">
      <g>
       <use xlink:href="#mf73b2ca995" x="90" y="145.125" style="stroke: #000000; stroke-width: 0.8"/>
      </g>
     </g>
     <g id="text_15">
      <!-- 0.25 -->
      <g transform="translate(60.734375 148.924219) scale(0.1 -0.1)">
       <use xlink:href="#DejaVuSans-30"/>
       <use xlink:href="#DejaVuSans-2e" x="63.623047"/>
       <use xlink:href="#DejaVuSans-32" x="95.410156"/>
       <use xlink:href="#DejaVuSans-35" x="159.033203"/>
      </g>
     </g>
    </g>
    <g id="ytick_7">
     <g id="line2d_16">
      <g>
       <use xlink:href="#mf73b2ca995" x="90" y="111.15" style="stroke: #000000; stroke-width: 0.8"/>
      </g>
     </g>
     <g id="text_16">
      <!-- 0.30 -->
      <g transform="translate(60.734375 114.949219) scale(0.1 -0.1)">
       <use xlink:href="#DejaVuSans-30"/>
       <use xlink:href="#DejaVuSans-2e" x="63.623047"/>
       <use xlink:href="#DejaVuSans-33" x="95.410156"/>
       <use xlink:href="#DejaVuSans-30" x="159.033203"/>
      </g>
     </g>
    </g>
    <g id="ytick_8">
     <g id="line2d_17">
      <g>
       <use xlink:href="#mf73b2ca995" x="90" y="77.175" style="stroke: #000000; stroke-width: 0.8"/>
      </g>
     </g>
     <g id="text_17">
      <!-- 0.35 -->
      <g transform="translate(60.734375 80.974219) scale(0.1 -0.1)">
       <use xlink:href="#DejaVuSans-30"/>
       <use xlink:href="#DejaVuSans-2e" x="63.623047"/>
       <use xlink:href="#DejaVuSans-33" x="95.410156"/>
       <use xlink:href="#DejaVuSans-35" x="159.033203"/>
      </g>
     </g>
    </g>
    <g id="ytick_9">
     <g id="line2d_18">
      <g>
       <use xlink:href="#mf73b2ca995" x="90" y="43.2" style="stroke: #000000; stroke-width: 0.8"/>
      </g>
     </g>
     <g id="text_18">
      <!-- 0.40 -->
      <g transform="translate(60.734375 46.999219) scale(0.1 -0.1)">
       <use xlink:href="#DejaVuSans-30"/>
       <use xlink:href="#DejaVuSans-2e" x="63.623047"/>
       <use xlink:href="#DejaVuSans-34" x="95.410156"/>
       <use xlink:href="#DejaVuSans-30" x="159.033203"/>
      </g>
     </g>
    </g>
   </g>
   <g id="line2d_19">
    <path d="M 115.363636 315 
L 121.78481 315 
L 128.205984 315 
L 134.627158 315 
L 141.048331 315 
L 147.469505 315 
L 153.890679 315 
L 160.311853 315 
L 166.733026 315 
L 173.1542 315 
L 179.575374 315 
L 185.996548 315 
L 192.417722 315 
L 198.838895 315 
L 205.260069 315 
L 211.681243 315 
L 218.102417 315 
L 224.52359 315 
L 230.944764 315 
L 237.365938 315 
L 243.787112 315 
L 250.208285 315 
L 256.629459 315 
L 263.050633 315 
L 269.471807 315 
L 275.89298 315 
L 282.314154 315 
L 288.735328 315 
L 295.156502 315 
L 301.577675 315 
L 307.998849 315 
L 314.420023 315 
L 320.841197 315 
L 327.262371 315 
L 333.683544 315 
L 340.104718 315 
L 346.525892 315 
L 352.947066 315 
L 359.368239 315 
L 365.789413 315 
L 372.210587 315 
L 378.631761 315 
L 385.052934 315 
L 391.474108 315 
L 397.895282 315 
L 404.316456 315 
L 410.737629 315 
L 417.158803 315 
L 423.579977 315 
L 430.001151 315 
L 436.422325 315 
L 442.843498 315 
L 449.264672 315 
L 455.685846 315 
L 462.10702 315 
L 468.528193 315 
L 474.949367 315 
L 481.370541 315 
L 487.791715 315 
L 494.212888 315 
L 500.634062 315 
L 507.055236 315 
L 513.47641 315 
L 519.897583 315 
L 526.318757 315 
L 532.739931 315 
L 539.161105 315 
L 545.582278 315 
L 552.003452 315 
L 558.424626 315 
L 564.8458 315 
L 571.266974 315 
L 577.688147 315 
L 584.109321 315 
L 590.530495 315 
L 596.951669 315 
L 603.372842 315 
L 609.794016 315 
L 616.21519 315 
L 622.636364 315 
" clip-path="url(#pa9c2e2bbad)" style="fill: none; stroke-dasharray: 3,4.95; stroke-dashoffset: 0; stroke: #000000; stroke-width: 3"/>
   </g>
   <g id="line2d_20">
    <path d="M 115.363636 315 
L 121.78481 315 
L 128.205984 315 
L 134.627158 315 
L 141.048331 315 
L 147.469505 315 
L 153.890679 315 
L 160.311853 315 
L 166.733026 315 
L 173.1542 315 
L 179.575374 315 
L 185.996548 315 
L 192.417722 315 
L 198.838895 315 
L 205.260069 315 
L 211.681243 315 
L 218.102417 315 
L 224.52359 315 
L 230.944764 315 
L 237.365938 315 
L 243.787112 315 
L 250.208285 315 
L 256.629459 315 
L 263.050633 315 
L 269.471807 315 
L 275.89298 315 
L 282.314154 315 
L 288.735328 315 
L 295.156502 315 
L 301.577675 315 
L 307.998849 315 
L 314.420023 315 
L 320.841197 315 
L 327.262371 308.466346 
L 333.683544 295.399038 
L 340.104718 288.865385 
L 346.525892 288.865385 
L 352.947066 282.331731 
L 359.368239 275.798077 
L 365.789413 275.798077 
L 372.210587 275.798077 
L 378.631761 275.798077 
L 385.052934 275.798077 
L 391.474108 275.798077 
L 397.895282 275.798077 
L 404.316456 275.798077 
L 410.737629 275.798077 
L 417.158803 275.798077 
L 423.579977 282.331731 
L 430.001151 288.865385 
L 436.422325 288.865385 
L 442.843498 288.865385 
L 449.264672 295.399038 
L 455.685846 301.932692 
L 462.10702 308.466346 
L 468.528193 315 
L 474.949367 315 
L 481.370541 315 
L 487.791715 315 
L 494.212888 315 
L 500.634062 315 
L 507.055236 315 
L 513.47641 315 
L 519.897583 315 
L 526.318757 315 
L 532.739931 315 
L 539.161105 315 
L 545.582278 315 
L 552.003452 315 
L 558.424626 315 
L 564.8458 315 
L 571.266974 315 
L 577.688147 315 
L 584.109321 315 
L 590.530495 315 
L 596.951669 315 
L 603.372842 315 
L 609.794016 315 
L 616.21519 315 
L 622.636364 315 
" clip-path="url(#pa9c2e2bbad)" style="fill: none; stroke: #808080; stroke-width: 3; stroke-linecap: square"/>
   </g>
   <g id="line2d_21">
    <path d="M 115.363636 315 
L 121.78481 315 
L 128.205984 315 
L 134.627158 315 
L 141.048331 315 
L 147.469505 315 
L 153.890679 315 
L 160.311853 315 
L 166.733026 315 
L 173.1542 315 
L 179.575374 315 
L 185.996548 308.466346 
L 192.417722 301.932692 
L 198.838895 295.399038 
L 205.260069 288.865385 
L 211.681243 288.865385 
L 218.102417 288.865385 
L 224.52359 295.399038 
L 230.944764 301.932692 
L 237.365938 301.932692 
L 243.787112 301.932692 
L 250.208285 301.932692 
L 256.629459 308.466346 
L 263.050633 315 
L 269.471807 315 
L 275.89298 315 
L 282.314154 315 
L 288.735328 315 
L 295.156502 315 
L 301.577675 315 
L 307.998849 315 
L 314.420023 315 
L 320.841197 315 
L 327.262371 315 
L 333.683544 315 
L 340.104718 315 
L 346.525892 315 
L 352.947066 315 
L 359.368239 315 
L 365.789413 315 
L 372.210587 315 
L 378.631761 315 
L 385.052934 315 
L 391.474108 315 
L 397.895282 315 
L 404.316456 315 
L 410.737629 315 
L 417.158803 315 
L 423.579977 315 
L 430.001151 315 
L 436.422325 315 
L 442.843498 315 
L 449.264672 315 
L 455.685846 315 
L 462.10702 315 
L 468.528193 315 
L 474.949367 315 
L 481.370541 315 
L 487.791715 315 
L 494.212888 315 
L 500.634062 315 
L 507.055236 315 
L 513.47641 315 
L 519.897583 315 
L 526.318757 315 
L 532.739931 315 
L 539.161105 315 
L 545.582278 315 
L 552.003452 315 
L 558.424626 315 
L 564.8458 315 
L 571.266974 315 
L 577.688147 315 
L 584.109321 315 
L 590.530495 315 
L 596.951669 315 
L 603.372842 315 
L 609.794016 315 
L 616.21519 315 
L 622.636364 315 
" clip-path="url(#pa9c2e2bbad)" style="fill: none; stroke: #1f77b4; stroke-width: 3; stroke-linecap: square"/>
   </g>
   <g id="line2d_22">
    <path d="M 115.363636 315 
L 121.78481 315 
L 128.205984 315 
L 134.627158 315 
L 141.048331 315 
L 147.469505 315 
L 153.890679 315 
L 160.311853 315 
L 166.733026 315 
L 173.1542 315 
L 179.575374 315 
L 185.996548 315 
L 192.417722 315 
L 198.838895 315 
L 205.260069 315 
L 211.681243 315 
L 218.102417 315 
L 224.52359 315 
L 230.944764 315 
L 237.365938 315 
L 243.787112 315 
L 250.208285 315 
L 256.629459 315 
L 263.050633 315 
L 269.471807 315 
L 275.89298 315 
L 282.314154 315 
L 288.735328 315 
L 295.156502 315 
L 301.577675 315 
L 307.998849 315 
L 314.420023 315 
L 320.841197 315 
L 327.262371 315 
L 333.683544 315 
L 340.104718 315 
L 346.525892 315 
L 352.947066 315 
L 359.368239 315 
L 365.789413 315 
L 372.210587 315 
L 378.631761 315 
L 385.052934 315 
L 391.474108 315 
L 397.895282 315 
L 404.316456 315 
L 410.737629 315 
L 417.158803 315 
L 423.579977 315 
L 430.001151 315 
L 436.422325 315 
L 442.843498 315 
L 449.264672 315 
L 455.685846 315 
L 462.10702 315 
L 468.528193 315 
L 474.949367 315 
L 481.370541 315 
L 487.791715 315 
L 494.212888 315 
L 500.634062 315 
L 507.055236 315 
L 513.47641 315 
L 519.897583 315 
L 526.318757 315 
L 532.739931 315 
L 539.161105 315 
L 545.582278 315 
L 552.003452 315 
L 558.424626 315 
L 564.8458 315 
L 571.266974 315 
L 577.688147 315 
L 584.109321 315 
L 590.530495 315 
L 596.951669 315 
L 603.372842 315 
L 609.794016 315 
L 616.21519 315 
L 622.636364 315 
" clip-path="url(#pa9c2e2bbad)" style="fill: none; stroke: #17becf; stroke-width: 3; stroke-linecap: square"/>
   </g>
   <g id="line2d_23">
    <path d="M 115.363636 288.865385 
L 121.78481 288.865385 
L 128.205984 288.865385 
L 134.627158 295.399038 
L 141.048331 308.466346 
L 147.469505 315 
L 153.890679 315 
L 160.311853 315 
L 166.733026 315 
L 173.1542 315 
L 179.575374 308.466346 
L 185.996548 295.399038 
L 192.417722 288.865385 
L 198.838895 288.865385 
L 205.260069 288.865385 
L 211.681243 295.399038 
L 218.102417 301.932692 
L 224.52359 301.932692 
L 230.944764 301.932692 
L 237.365938 308.466346 
L 243.787112 315 
L 250.208285 301.932692 
L 256.629459 256.197115 
L 263.050633 210.461538 
L 269.471807 190.860577 
L 275.89298 177.793269 
L 282.314154 164.725962 
L 288.735328 158.192308 
L 295.156502 151.658654 
L 301.577675 132.057692 
L 307.998849 112.456731 
L 314.420023 105.923077 
L 320.841197 118.990385 
L 327.262371 132.057692 
L 333.683544 145.125 
L 340.104718 164.725962 
L 346.525892 158.192308 
L 352.947066 145.125 
L 359.368239 138.591346 
L 365.789413 138.591346 
L 372.210587 145.125 
L 378.631761 145.125 
L 385.052934 138.591346 
L 391.474108 145.125 
L 397.895282 158.192308 
L 404.316456 158.192308 
L 410.737629 164.725962 
L 417.158803 177.793269 
L 423.579977 190.860577 
L 430.001151 210.461538 
L 436.422325 230.0625 
L 442.843498 243.129808 
L 449.264672 243.129808 
L 455.685846 236.596154 
L 462.10702 236.596154 
L 468.528193 236.596154 
L 474.949367 243.129808 
L 481.370541 256.197115 
L 487.791715 269.264423 
L 494.212888 275.798077 
L 500.634062 256.197115 
L 507.055236 243.129808 
L 513.47641 249.663462 
L 519.897583 256.197115 
L 526.318757 262.730769 
L 532.739931 269.264423 
L 539.161105 275.798077 
L 545.582278 275.798077 
L 552.003452 275.798077 
L 558.424626 282.331731 
L 564.8458 288.865385 
L 571.266974 301.932692 
L 577.688147 315 
L 584.109321 315 
L 590.530495 308.466346 
L 596.951669 301.932692 
L 603.372842 295.399038 
L 609.794016 288.865385 
L 616.21519 288.865385 
L 622.636364 288.865385 
" clip-path="url(#pa9c2e2bbad)" style="fill: none; stroke: #d62728; stroke-width: 3; stroke-linecap: square"/>
   </g>
   <g id="line2d_24">
    <path d="M 115.363636 315 
L 121.78481 315 
L 128.205984 315 
L 134.627158 315 
L 141.048331 315 
L 147.469505 315 
L 153.890679 315 
L 160.311853 315 
L 166.733026 315 
L 173.1542 315 
L 179.575374 315 
L 185.996548 308.466346 
L 192.417722 301.932692 
L 198.838895 301.932692 
L 205.260069 301.932692 
L 211.681243 301.932692 
L 218.102417 301.932692 
L 224.52359 301.932692 
L 230.944764 301.932692 
L 237.365938 295.399038 
L 243.787112 282.331731 
L 250.208285 262.730769 
L 256.629459 236.596154 
L 263.050633 216.995192 
L 269.471807 210.461538 
L 275.89298 210.461538 
L 282.314154 216.995192 
L 288.735328 223.528846 
L 295.156502 216.995192 
L 301.577675 210.461538 
L 307.998849 210.461538 
L 314.420023 197.394231 
L 320.841197 184.326923 
L 327.262371 184.326923 
L 333.683544 184.326923 
L 340.104718 184.326923 
L 346.525892 177.793269 
L 352.947066 177.793269 
L 359.368239 190.860577 
L 365.789413 210.461538 
L 372.210587 223.528846 
L 378.631761 223.528846 
L 385.052934 216.995192 
L 391.474108 203.927885 
L 397.895282 203.927885 
L 404.316456 203.927885 
L 410.737629 197.394231 
L 417.158803 203.927885 
L 423.579977 210.461538 
L 430.001151 216.995192 
L 436.422325 236.596154 
L 442.843498 262.730769 
L 449.264672 275.798077 
L 455.685846 275.798077 
L 462.10702 275.798077 
L 468.528193 275.798077 
L 474.949367 275.798077 
L 481.370541 275.798077 
L 487.791715 275.798077 
L 494.212888 275.798077 
L 500.634062 275.798077 
L 507.055236 275.798077 
L 513.47641 275.798077 
L 519.897583 275.798077 
L 526.318757 275.798077 
L 532.739931 275.798077 
L 539.161105 275.798077 
L 545.582278 275.798077 
L 552.003452 282.331731 
L 558.424626 288.865385 
L 564.8458 288.865385 
L 571.266974 288.865385 
L 577.688147 295.399038 
L 584.109321 301.932692 
L 590.530495 301.932692 
L 596.951669 301.932692 
L 603.372842 301.932692 
L 609.794016 301.932692 
L 616.21519 301.932692 
L 622.636364 301.932692 
" clip-path="url(#pa9c2e2bbad)" style="fill: none; stroke: #ff7f0e; stroke-width: 3; stroke-linecap: square"/>
   </g>
   <g id="line2d_25">
    <path d="M 115.363636 308.466346 
L 121.78481 308.466346 
L 128.205984 315 
L 134.627158 315 
L 141.048331 315 
L 147.469505 315 
L 153.890679 315 
L 160.311853 315 
L 166.733026 315 
L 173.1542 315 
L 179.575374 315 
L 185.996548 315 
L 192.417722 315 
L 198.838895 315 
L 205.260069 308.466346 
L 211.681243 301.932692 
L 218.102417 301.932692 
L 224.52359 301.932692 
L 230.944764 301.932692 
L 237.365938 301.932692 
L 243.787112 301.932692 
L 250.208285 301.932692 
L 256.629459 301.932692 
L 263.050633 308.466346 
L 269.471807 315 
L 275.89298 315 
L 282.314154 315 
L 288.735328 315 
L 295.156502 315 
L 301.577675 315 
L 307.998849 315 
L 314.420023 315 
L 320.841197 315 
L 327.262371 308.466346 
L 333.683544 301.932692 
L 340.104718 301.932692 
L 346.525892 301.932692 
L 352.947066 301.932692 
L 359.368239 301.932692 
L 365.789413 308.466346 
L 372.210587 315 
L 378.631761 315 
L 385.052934 315 
L 391.474108 315 
L 397.895282 315 
L 404.316456 308.466346 
L 410.737629 301.932692 
L 417.158803 301.932692 
L 423.579977 301.932692 
L 430.001151 301.932692 
L 436.422325 301.932692 
L 442.843498 301.932692 
L 449.264672 308.466346 
L 455.685846 315 
L 462.10702 315 
L 468.528193 315 
L 474.949367 315 
L 481.370541 315 
L 487.791715 315 
L 494.212888 315 
L 500.634062 315 
L 507.055236 315 
L 513.47641 315 
L 519.897583 315 
L 526.318757 315 
L 532.739931 315 
L 539.161105 315 
L 545.582278 315 
L 552.003452 315 
L 558.424626 315 
L 564.8458 308.466346 
L 571.266974 301.932692 
L 577.688147 301.932692 
L 584.109321 301.932692 
L 590.530495 301.932692 
L 596.951669 301.932692 
L 603.372842 301.932692 
L 609.794016 308.466346 
L 616.21519 315 
L 622.636364 315 
" clip-path="url(#pa9c2e2bbad)" style="fill: none; stroke: #9467bd; stroke-width: 3; stroke-linecap: square"/>
   </g>
   <g id="line2d_26">
    <path d="M 115.363636 301.932692 
L 121.78481 301.932692 
L 128.205984 301.932692 
L 134.627158 301.932692 
L 141.048331 301.932692 
L 147.469505 301.932692 
L 153.890679 301.932692 
L 160.311853 301.932692 
L 166.733026 308.466346 
L 173.1542 315 
L 179.575374 315 
L 185.996548 315 
L 192.417722 315 
L 198.838895 315 
L 205.260069 315 
L 211.681243 315 
L 218.102417 315 
L 224.52359 315 
L 230.944764 315 
L 237.365938 315 
L 243.787112 315 
L 250.208285 315 
L 256.629459 308.466346 
L 263.050633 301.932692 
L 269.471807 301.932692 
L 275.89298 301.932692 
L 282.314154 301.932692 
L 288.735328 301.932692 
L 295.156502 301.932692 
L 301.577675 301.932692 
L 307.998849 301.932692 
L 314.420023 301.932692 
L 320.841197 301.932692 
L 327.262371 301.932692 
L 333.683544 301.932692 
L 340.104718 301.932692 
L 346.525892 301.932692 
L 352.947066 308.466346 
L 359.368239 315 
L 365.789413 315 
L 372.210587 315 
L 378.631761 315 
L 385.052934 315 
L 391.474108 315 
L 397.895282 315 
L 404.316456 315 
L 410.737629 315 
L 417.158803 315 
L 423.579977 315 
L 430.001151 315 
L 436.422325 315 
L 442.843498 315 
L 449.264672 315 
L 455.685846 315 
L 462.10702 315 
L 468.528193 315 
L 474.949367 315 
L 481.370541 308.466346 
L 487.791715 308.466346 
L 494.212888 315 
L 500.634062 315 
L 507.055236 315 
L 513.47641 315 
L 519.897583 315 
L 526.318757 315 
L 532.739931 315 
L 539.161105 315 
L 545.582278 315 
L 552.003452 315 
L 558.424626 315 
L 564.8458 315 
L 571.266974 315 
L 577.688147 315 
L 584.109321 315 
L 590.530495 308.466346 
L 596.951669 301.932692 
L 603.372842 301.932692 
L 609.794016 301.932692 
L 616.21519 301.932692 
L 622.636364 301.932692 
" clip-path="url(#pa9c2e2bbad)" style="fill: none; stroke: #008000; stroke-width: 3; stroke-linecap: square"/>
   </g>
   <g id="line2d_27">
    <path d="M 115.363636 315 
L 121.78481 315 
L 128.205984 315 
L 134.627158 315 
L 141.048331 315 
L 147.469505 315 
L 153.890679 315 
L 160.311853 315 
L 166.733026 315 
L 173.1542 315 
L 179.575374 308.466346 
L 185.996548 301.932692 
L 192.417722 295.399038 
L 198.838895 288.865385 
L 205.260069 288.865385 
L 211.681243 282.331731 
L 218.102417 275.798077 
L 224.52359 275.798077 
L 230.944764 269.264423 
L 237.365938 262.730769 
L 243.787112 256.197115 
L 250.208285 243.129808 
L 256.629459 230.0625 
L 263.050633 223.528846 
L 269.471807 210.461538 
L 275.89298 197.394231 
L 282.314154 184.326923 
L 288.735328 171.259615 
L 295.156502 171.259615 
L 301.577675 164.725962 
L 307.998849 158.192308 
L 314.420023 171.259615 
L 320.841197 184.326923 
L 327.262371 177.793269 
L 333.683544 190.860577 
L 340.104718 210.461538 
L 346.525892 216.995192 
L 352.947066 223.528846 
L 359.368239 223.528846 
L 365.789413 230.0625 
L 372.210587 243.129808 
L 378.631761 256.197115 
L 385.052934 256.197115 
L 391.474108 249.663462 
L 397.895282 249.663462 
L 404.316456 256.197115 
L 410.737629 262.730769 
L 417.158803 262.730769 
L 423.579977 262.730769 
L 430.001151 262.730769 
L 436.422325 269.264423 
L 442.843498 275.798077 
L 449.264672 275.798077 
L 455.685846 275.798077 
L 462.10702 275.798077 
L 468.528193 288.865385 
L 474.949367 308.466346 
L 481.370541 315 
L 487.791715 315 
L 494.212888 315 
L 500.634062 315 
L 507.055236 315 
L 513.47641 315 
L 519.897583 315 
L 526.318757 315 
L 532.739931 315 
L 539.161105 315 
L 545.582278 315 
L 552.003452 315 
L 558.424626 315 
L 564.8458 315 
L 571.266974 315 
L 577.688147 315 
L 584.109321 315 
L 590.530495 315 
L 596.951669 315 
L 603.372842 315 
L 609.794016 315 
L 616.21519 315 
L 622.636364 315 
" clip-path="url(#pa9c2e2bbad)" style="fill: none; stroke: #000000; stroke-width: 3; stroke-linecap: square"/>
   </g>
   <g id="patch_3">
    <path d="M 90 315 
L 90 43.2 
" style="fill: none; stroke: #000000; stroke-width: 0.8; stroke-linejoin: miter; stroke-linecap: square"/>
   </g>
   <g id="patch_4">
    <path d="M 648 315 
L 648 43.2 
" style="fill: none; stroke: #000000; stroke-width: 0.8; stroke-linejoin: miter; stroke-linecap: square"/>
   </g>
   <g id="patch_5">
    <path d="M 90 315 
L 648 315 
" style="fill: none; stroke: #000000; stroke-width: 0.8; stroke-linejoin: miter; stroke-linecap: square"/>
   </g>
   <g id="patch_6">
    <path d="M 90 43.2 
L 648 43.2 
" style="fill: none; stroke: #000000; stroke-width: 0.8; stroke-linejoin: miter; stroke-linecap: square"/>
   </g>
   <g id="legend_1">
    <g id="patch_7">
     <path d="M 558.7125 184.1375 
L 641 184.1375 
Q 643 184.1375 643 182.1375 
L 643 50.2 
Q 643 48.2 641 48.2 
L 558.7125 48.2 
Q 556.7125 48.2 556.7125 50.2 
L 556.7125 182.1375 
Q 556.7125 184.1375 558.7125 184.1375 
z
" style="fill: #ffffff; opacity: 0.8; stroke: #cccccc; stroke-linejoin: miter"/>
    </g>
    <g id="line2d_28">
     <path d="M 560.7125 56.298437 
L 570.7125 56.298437 
L 580.7125 56.298437 
" style="fill: none; stroke-dasharray: 3,4.95; stroke-dashoffset: 0; stroke: #000000; stroke-width: 3"/>
    </g>
    <g id="text_19">
     <!-- lick_onset -->
     <g transform="translate(588.7125 59.798437) scale(0.1 -0.1)">
      <defs>
       <path id="DejaVuSans-6c" d="M 603 4863 
L 1178 4863 
L 1178 0 
L 603 0 
L 603 4863 
z
" transform="scale(0.015625)"/>
       <path id="DejaVuSans-69" d="M 603 3500 
L 1178 3500 
L 1178 0 
L 603 0 
L 603 3500 
z
M 603 4863 
L 1178 4863 
L 1178 4134 
L 603 4134 
L 603 4863 
z
" transform="scale(0.015625)"/>
       <path id="DejaVuSans-63" d="M 3122 3366 
L 3122 2828 
Q 2878 2963 2633 3030 
Q 2388 3097 2138 3097 
Q 1578 3097 1268 2742 
Q 959 2388 959 1747 
Q 959 1106 1268 751 
Q 1578 397 2138 397 
Q 2388 397 2633 464 
Q 2878 531 3122 666 
L 3122 134 
Q 2881 22 2623 -34 
Q 2366 -91 2075 -91 
Q 1284 -91 818 406 
Q 353 903 353 1747 
Q 353 2603 823 3093 
Q 1294 3584 2113 3584 
Q 2378 3584 2631 3529 
Q 2884 3475 3122 3366 
z
" transform="scale(0.015625)"/>
       <path id="DejaVuSans-6b" d="M 581 4863 
L 1159 4863 
L 1159 1991 
L 2875 3500 
L 3609 3500 
L 1753 1863 
L 3688 0 
L 2938 0 
L 1159 1709 
L 1159 0 
L 581 0 
L 581 4863 
z
" transform="scale(0.015625)"/>
       <path id="DejaVuSans-5f" d="M 3263 -1063 
L 3263 -1509 
L -63 -1509 
L -63 -1063 
L 3263 -1063 
z
" transform="scale(0.015625)"/>
       <path id="DejaVuSans-6f" d="M 1959 3097 
Q 1497 3097 1228 2736 
Q 959 2375 959 1747 
Q 959 1119 1226 758 
Q 1494 397 1959 397 
Q 2419 397 2687 759 
Q 2956 1122 2956 1747 
Q 2956 2369 2687 2733 
Q 2419 3097 1959 3097 
z
M 1959 3584 
Q 2709 3584 3137 3096 
Q 3566 2609 3566 1747 
Q 3566 888 3137 398 
Q 2709 -91 1959 -91 
Q 1206 -91 779 398 
Q 353 888 353 1747 
Q 353 2609 779 3096 
Q 1206 3584 1959 3584 
z
" transform="scale(0.015625)"/>
       <path id="DejaVuSans-6e" d="M 3513 2113 
L 3513 0 
L 2938 0 
L 2938 2094 
Q 2938 2591 2744 2837 
Q 2550 3084 2163 3084 
Q 1697 3084 1428 2787 
Q 1159 2491 1159 1978 
L 1159 0 
L 581 0 
L 581 3500 
L 1159 3500 
L 1159 2956 
Q 1366 3272 1645 3428 
Q 1925 3584 2291 3584 
Q 2894 3584 3203 3211 
Q 3513 2838 3513 2113 
z
" transform="scale(0.015625)"/>
       <path id="DejaVuSans-73" d="M 2834 3397 
L 2834 2853 
Q 2591 2978 2328 3040 
Q 2066 3103 1784 3103 
Q 1356 3103 1142 2972 
Q 928 2841 928 2578 
Q 928 2378 1081 2264 
Q 1234 2150 1697 2047 
L 1894 2003 
Q 2506 1872 2764 1633 
Q 3022 1394 3022 966 
Q 3022 478 2636 193 
Q 2250 -91 1575 -91 
Q 1294 -91 989 -36 
Q 684 19 347 128 
L 347 722 
Q 666 556 975 473 
Q 1284 391 1588 391 
Q 1994 391 2212 530 
Q 2431 669 2431 922 
Q 2431 1156 2273 1281 
Q 2116 1406 1581 1522 
L 1381 1569 
Q 847 1681 609 1914 
Q 372 2147 372 2553 
Q 372 3047 722 3315 
Q 1072 3584 1716 3584 
Q 2034 3584 2315 3537 
Q 2597 3491 2834 3397 
z
" transform="scale(0.015625)"/>
       <path id="DejaVuSans-65" d="M 3597 1894 
L 3597 1613 
L 953 1613 
Q 991 1019 1311 708 
Q 1631 397 2203 397 
Q 2534 397 2845 478 
Q 3156 559 3463 722 
L 3463 178 
Q 3153 47 2828 -22 
Q 2503 -91 2169 -91 
Q 1331 -91 842 396 
Q 353 884 353 1716 
Q 353 2575 817 3079 
Q 1281 3584 2069 3584 
Q 2775 3584 3186 3129 
Q 3597 2675 3597 1894 
z
M 3022 2063 
Q 3016 2534 2758 2815 
Q 2500 3097 2075 3097 
Q 1594 3097 1305 2825 
Q 1016 2553 972 2059 
L 3022 2063 
z
" transform="scale(0.015625)"/>
       <path id="DejaVuSans-74" d="M 1172 4494 
L 1172 3500 
L 2356 3500 
L 2356 3053 
L 1172 3053 
L 1172 1153 
Q 1172 725 1289 603 
Q 1406 481 1766 481 
L 2356 481 
L 2356 0 
L 1766 0 
Q 1100 0 847 248 
Q 594 497 594 1153 
L 594 3053 
L 172 3053 
L 172 3500 
L 594 3500 
L 594 4494 
L 1172 4494 
z
" transform="scale(0.015625)"/>
      </defs>
      <use xlink:href="#DejaVuSans-6c"/>
      <use xlink:href="#DejaVuSans-69" x="27.783203"/>
      <use xlink:href="#DejaVuSans-63" x="55.566406"/>
      <use xlink:href="#DejaVuSans-6b" x="110.546875"/>
      <use xlink:href="#DejaVuSans-5f" x="168.457031"/>
      <use xlink:href="#DejaVuSans-6f" x="218.457031"/>
      <use xlink:href="#DejaVuSans-6e" x="279.638672"/>
      <use xlink:href="#DejaVuSans-73" x="343.017578"/>
      <use xlink:href="#DejaVuSans-65" x="395.117188"/>
      <use xlink:href="#DejaVuSans-74" x="456.640625"/>
     </g>
    </g>
    <g id="line2d_29">
     <path d="M 560.7125 71.254687 
L 570.7125 71.254687 
L 580.7125 71.254687 
" style="fill: none; stroke: #808080; stroke-width: 3; stroke-linecap: square"/>
    </g>
    <g id="text_20">
     <!-- lick_offset -->
     <g transform="translate(588.7125 74.754687) scale(0.1 -0.1)">
      <defs>
       <path id="DejaVuSans-66" d="M 2375 4863 
L 2375 4384 
L 1825 4384 
Q 1516 4384 1395 4259 
Q 1275 4134 1275 3809 
L 1275 3500 
L 2222 3500 
L 2222 3053 
L 1275 3053 
L 1275 0 
L 697 0 
L 697 3053 
L 147 3053 
L 147 3500 
L 697 3500 
L 697 3744 
Q 697 4328 969 4595 
Q 1241 4863 1831 4863 
L 2375 4863 
z
" transform="scale(0.015625)"/>
      </defs>
      <use xlink:href="#DejaVuSans-6c"/>
      <use xlink:href="#DejaVuSans-69" x="27.783203"/>
      <use xlink:href="#DejaVuSans-63" x="55.566406"/>
      <use xlink:href="#DejaVuSans-6b" x="110.546875"/>
      <use xlink:href="#DejaVuSans-5f" x="168.457031"/>
      <use xlink:href="#DejaVuSans-6f" x="218.457031"/>
      <use xlink:href="#DejaVuSans-66" x="279.638672"/>
      <use xlink:href="#DejaVuSans-66" x="314.84375"/>
      <use xlink:href="#DejaVuSans-73" x="350.048828"/>
      <use xlink:href="#DejaVuSans-65" x="402.148438"/>
      <use xlink:href="#DejaVuSans-74" x="463.671875"/>
     </g>
    </g>
    <g id="line2d_30">
     <path d="M 560.7125 86.210938 
L 570.7125 86.210938 
L 580.7125 86.210938 
" style="fill: none; stroke: #1f77b4; stroke-width: 3; stroke-linecap: square"/>
    </g>
    <g id="text_21">
     <!-- stim-Go -->
     <g transform="translate(588.7125 89.710938) scale(0.1 -0.1)">
      <defs>
       <path id="DejaVuSans-6d" d="M 3328 2828 
Q 3544 3216 3844 3400 
Q 4144 3584 4550 3584 
Q 5097 3584 5394 3201 
Q 5691 2819 5691 2113 
L 5691 0 
L 5113 0 
L 5113 2094 
Q 5113 2597 4934 2840 
Q 4756 3084 4391 3084 
Q 3944 3084 3684 2787 
Q 3425 2491 3425 1978 
L 3425 0 
L 2847 0 
L 2847 2094 
Q 2847 2600 2669 2842 
Q 2491 3084 2119 3084 
Q 1678 3084 1418 2786 
Q 1159 2488 1159 1978 
L 1159 0 
L 581 0 
L 581 3500 
L 1159 3500 
L 1159 2956 
Q 1356 3278 1631 3431 
Q 1906 3584 2284 3584 
Q 2666 3584 2933 3390 
Q 3200 3197 3328 2828 
z
" transform="scale(0.015625)"/>
       <path id="DejaVuSans-2d" d="M 313 2009 
L 1997 2009 
L 1997 1497 
L 313 1497 
L 313 2009 
z
" transform="scale(0.015625)"/>
       <path id="DejaVuSans-47" d="M 3809 666 
L 3809 1919 
L 2778 1919 
L 2778 2438 
L 4434 2438 
L 4434 434 
Q 4069 175 3628 42 
Q 3188 -91 2688 -91 
Q 1594 -91 976 548 
Q 359 1188 359 2328 
Q 359 3472 976 4111 
Q 1594 4750 2688 4750 
Q 3144 4750 3555 4637 
Q 3966 4525 4313 4306 
L 4313 3634 
Q 3963 3931 3569 4081 
Q 3175 4231 2741 4231 
Q 1884 4231 1454 3753 
Q 1025 3275 1025 2328 
Q 1025 1384 1454 906 
Q 1884 428 2741 428 
Q 3075 428 3337 486 
Q 3600 544 3809 666 
z
" transform="scale(0.015625)"/>
      </defs>
      <use xlink:href="#DejaVuSans-73"/>
      <use xlink:href="#DejaVuSans-74" x="52.099609"/>
      <use xlink:href="#DejaVuSans-69" x="91.308594"/>
      <use xlink:href="#DejaVuSans-6d" x="119.091797"/>
      <use xlink:href="#DejaVuSans-2d" x="216.503906"/>
      <use xlink:href="#DejaVuSans-47" x="256.212891"/>
      <use xlink:href="#DejaVuSans-6f" x="333.703125"/>
     </g>
    </g>
    <g id="line2d_31">
     <path d="M 560.7125 100.889062 
L 570.7125 100.889062 
L 580.7125 100.889062 
" style="fill: none; stroke: #17becf; stroke-width: 3; stroke-linecap: square"/>
    </g>
    <g id="text_22">
     <!-- stim-NG -->
     <g transform="translate(588.7125 104.389062) scale(0.1 -0.1)">
      <defs>
       <path id="DejaVuSans-4e" d="M 628 4666 
L 1478 4666 
L 3547 763 
L 3547 4666 
L 4159 4666 
L 4159 0 
L 3309 0 
L 1241 3903 
L 1241 0 
L 628 0 
L 628 4666 
z
" transform="scale(0.015625)"/>
      </defs>
      <use xlink:href="#DejaVuSans-73"/>
      <use xlink:href="#DejaVuSans-74" x="52.099609"/>
      <use xlink:href="#DejaVuSans-69" x="91.308594"/>
      <use xlink:href="#DejaVuSans-6d" x="119.091797"/>
      <use xlink:href="#DejaVuSans-2d" x="216.503906"/>
      <use xlink:href="#DejaVuSans-4e" x="252.587891"/>
      <use xlink:href="#DejaVuSans-47" x="327.392578"/>
     </g>
    </g>
    <g id="line2d_32">
     <path d="M 560.7125 115.567187 
L 570.7125 115.567187 
L 580.7125 115.567187 
" style="fill: none; stroke: #d62728; stroke-width: 3; stroke-linecap: square"/>
    </g>
    <g id="text_23">
     <!-- Hit -->
     <g transform="translate(588.7125 119.067187) scale(0.1 -0.1)">
      <defs>
       <path id="DejaVuSans-48" d="M 628 4666 
L 1259 4666 
L 1259 2753 
L 3553 2753 
L 3553 4666 
L 4184 4666 
L 4184 0 
L 3553 0 
L 3553 2222 
L 1259 2222 
L 1259 0 
L 628 0 
L 628 4666 
z
" transform="scale(0.015625)"/>
      </defs>
      <use xlink:href="#DejaVuSans-48"/>
      <use xlink:href="#DejaVuSans-69" x="75.195312"/>
      <use xlink:href="#DejaVuSans-74" x="102.978516"/>
     </g>
    </g>
    <g id="line2d_33">
     <path d="M 560.7125 130.245312 
L 570.7125 130.245312 
L 580.7125 130.245312 
" style="fill: none; stroke: #ff7f0e; stroke-width: 3; stroke-linecap: square"/>
    </g>
    <g id="text_24">
     <!-- FA -->
     <g transform="translate(588.7125 133.745312) scale(0.1 -0.1)">
      <defs>
       <path id="DejaVuSans-46" d="M 628 4666 
L 3309 4666 
L 3309 4134 
L 1259 4134 
L 1259 2759 
L 3109 2759 
L 3109 2228 
L 1259 2228 
L 1259 0 
L 628 0 
L 628 4666 
z
" transform="scale(0.015625)"/>
       <path id="DejaVuSans-41" d="M 2188 4044 
L 1331 1722 
L 3047 1722 
L 2188 4044 
z
M 1831 4666 
L 2547 4666 
L 4325 0 
L 3669 0 
L 3244 1197 
L 1141 1197 
L 716 0 
L 50 0 
L 1831 4666 
z
" transform="scale(0.015625)"/>
      </defs>
      <use xlink:href="#DejaVuSans-46"/>
      <use xlink:href="#DejaVuSans-41" x="48.394531"/>
     </g>
    </g>
    <g id="line2d_34">
     <path d="M 560.7125 144.923437 
L 570.7125 144.923437 
L 580.7125 144.923437 
" style="fill: none; stroke: #9467bd; stroke-width: 3; stroke-linecap: square"/>
    </g>
    <g id="text_25">
     <!-- Miss -->
     <g transform="translate(588.7125 148.423437) scale(0.1 -0.1)">
      <defs>
       <path id="DejaVuSans-4d" d="M 628 4666 
L 1569 4666 
L 2759 1491 
L 3956 4666 
L 4897 4666 
L 4897 0 
L 4281 0 
L 4281 4097 
L 3078 897 
L 2444 897 
L 1241 4097 
L 1241 0 
L 628 0 
L 628 4666 
z
" transform="scale(0.015625)"/>
      </defs>
      <use xlink:href="#DejaVuSans-4d"/>
      <use xlink:href="#DejaVuSans-69" x="86.279297"/>
      <use xlink:href="#DejaVuSans-73" x="114.0625"/>
      <use xlink:href="#DejaVuSans-73" x="166.162109"/>
     </g>
    </g>
    <g id="line2d_35">
     <path d="M 560.7125 159.601562 
L 570.7125 159.601562 
L 580.7125 159.601562 
" style="fill: none; stroke: #008000; stroke-width: 3; stroke-linecap: square"/>
    </g>
    <g id="text_26">
     <!-- CR -->
     <g transform="translate(588.7125 163.101562) scale(0.1 -0.1)">
      <defs>
       <path id="DejaVuSans-43" d="M 4122 4306 
L 4122 3641 
Q 3803 3938 3442 4084 
Q 3081 4231 2675 4231 
Q 1875 4231 1450 3742 
Q 1025 3253 1025 2328 
Q 1025 1406 1450 917 
Q 1875 428 2675 428 
Q 3081 428 3442 575 
Q 3803 722 4122 1019 
L 4122 359 
Q 3791 134 3420 21 
Q 3050 -91 2638 -91 
Q 1578 -91 968 557 
Q 359 1206 359 2328 
Q 359 3453 968 4101 
Q 1578 4750 2638 4750 
Q 3056 4750 3426 4639 
Q 3797 4528 4122 4306 
z
" transform="scale(0.015625)"/>
       <path id="DejaVuSans-52" d="M 2841 2188 
Q 3044 2119 3236 1894 
Q 3428 1669 3622 1275 
L 4263 0 
L 3584 0 
L 2988 1197 
Q 2756 1666 2539 1819 
Q 2322 1972 1947 1972 
L 1259 1972 
L 1259 0 
L 628 0 
L 628 4666 
L 2053 4666 
Q 2853 4666 3247 4331 
Q 3641 3997 3641 3322 
Q 3641 2881 3436 2590 
Q 3231 2300 2841 2188 
z
M 1259 4147 
L 1259 2491 
L 2053 2491 
Q 2509 2491 2742 2702 
Q 2975 2913 2975 3322 
Q 2975 3731 2742 3939 
Q 2509 4147 2053 4147 
L 1259 4147 
z
" transform="scale(0.015625)"/>
      </defs>
      <use xlink:href="#DejaVuSans-43"/>
      <use xlink:href="#DejaVuSans-52" x="69.824219"/>
     </g>
    </g>
    <g id="line2d_36">
     <path d="M 560.7125 174.279687 
L 570.7125 174.279687 
L 580.7125 174.279687 
" style="fill: none; stroke: #000000; stroke-width: 3; stroke-linecap: square"/>
    </g>
    <g id="text_27">
     <!-- lick_mid -->
     <g transform="translate(588.7125 177.779687) scale(0.1 -0.1)">
      <defs>
       <path id="DejaVuSans-64" d="M 2906 2969 
L 2906 4863 
L 3481 4863 
L 3481 0 
L 2906 0 
L 2906 525 
Q 2725 213 2448 61 
Q 2172 -91 1784 -91 
Q 1150 -91 751 415 
Q 353 922 353 1747 
Q 353 2572 751 3078 
Q 1150 3584 1784 3584 
Q 2172 3584 2448 3432 
Q 2725 3281 2906 2969 
z
M 947 1747 
Q 947 1113 1208 752 
Q 1469 391 1925 391 
Q 2381 391 2643 752 
Q 2906 1113 2906 1747 
Q 2906 2381 2643 2742 
Q 2381 3103 1925 3103 
Q 1469 3103 1208 2742 
Q 947 2381 947 1747 
z
" transform="scale(0.015625)"/>
      </defs>
      <use xlink:href="#DejaVuSans-6c"/>
      <use xlink:href="#DejaVuSans-69" x="27.783203"/>
      <use xlink:href="#DejaVuSans-63" x="55.566406"/>
      <use xlink:href="#DejaVuSans-6b" x="110.546875"/>
      <use xlink:href="#DejaVuSans-5f" x="168.457031"/>
      <use xlink:href="#DejaVuSans-6d" x="218.457031"/>
      <use xlink:href="#DejaVuSans-69" x="315.869141"/>
      <use xlink:href="#DejaVuSans-64" x="343.652344"/>
     </g>
    </g>
   </g>
  </g>
 </g>
 <defs>
  <clipPath id="pa9c2e2bbad">
   <rect x="90" y="43.2" width="558" height="271.8"/>
  </clipPath>
 </defs>
</svg>
