<?xml version="1.0" encoding="utf-8" standalone="no"?>
<!DOCTYPE svg PUBLIC "-//W3C//DTD SVG 1.1//EN"
  "http://www.w3.org/Graphics/SVG/1.1/DTD/svg11.dtd">
<svg xmlns:xlink="http://www.w3.org/1999/xlink" width="720pt" height="360pt" viewBox="0 0 720 360" xmlns="http://www.w3.org/2000/svg" version="1.1">
 <metadata>
  <rdf:RDF xmlns:dc="http://purl.org/dc/elements/1.1/" xmlns:cc="http://creativecommons.org/ns#" xmlns:rdf="http://www.w3.org/1999/02/22-rdf-syntax-ns#">
   <cc:Work>
    <dc:type rdf:resource="http://purl.org/dc/dcmitype/StillImage"/>
    <dc:date>2024-11-19T11:35:06.907049</dc:date>
    <dc:format>image/svg+xml</dc:format>
    <dc:creator>
     <cc:Agent>
      <dc:title>Matplotlib v3.7.3, https://matplotlib.org/</dc:title>
     </cc:Agent>
    </dc:creator>
   </cc:Work>
  </rdf:RDF>
 </metadata>
 <defs>
  <style type="text/css">*{stroke-linejoin: round; stroke-linecap: butt}</style>
 </defs>
 <g id="figure_1">
  <g id="patch_1">
   <path d="M 0 360 
L 720 360 
L 720 0 
L 0 0 
z
" style="fill: #ffffff"/>
  </g>
  <g id="axes_1">
   <g id="patch_2">
    <path d="M 90 320.4 
L 648 320.4 
L 648 43.2 
L 90 43.2 
z
" style="fill: #ffffff"/>
   </g>
   <g id="PolyCollection_1">
    <path d="M 115.363636 305.810526 
L 115.363636 305.810526 
L 121.78481 305.810526 
L 128.205984 305.810526 
L 134.627158 305.810526 
L 141.048331 305.810526 
L 147.469505 305.810526 
L 153.890679 305.808593 
L 160.311853 305.743185 
L 166.733026 304.91677 
L 173.1542 300.83662 
L 179.575374 300.54657 
L 185.996548 297.523116 
L 192.417722 295.623562 
L 198.838895 295.309686 
L 205.260069 298.316657 
L 211.681243 300.146837 
L 218.102417 302.705016 
L 224.52359 303.662132 
L 230.944764 304.44294 
L 237.365938 304.453481 
L 243.787112 305.16218 
L 250.208285 304.929875 
L 256.629459 305.08612 
L 263.050633 305.100849 
L 269.471807 305.98222 
L 275.89298 305.404401 
L 282.314154 305.732738 
L 288.735328 305.804479 
L 295.156502 305.810349 
L 301.577675 305.810526 
L 307.998849 305.810526 
L 314.420023 305.810526 
L 320.841197 305.810526 
L 327.262371 305.810526 
L 333.683544 305.810526 
L 340.104718 305.810526 
L 346.525892 305.810526 
L 352.947066 305.810526 
L 359.368239 305.810526 
L 365.789413 305.810526 
L 372.210587 305.810526 
L 378.631761 305.810526 
L 385.052934 305.810526 
L 391.474108 305.810526 
L 397.895282 305.810526 
L 404.316456 305.810526 
L 410.737629 305.810526 
L 417.158803 305.810526 
L 423.579977 305.810526 
L 430.001151 305.810526 
L 436.422325 305.810526 
L 442.843498 305.810526 
L 449.264672 305.810526 
L 455.685846 305.810526 
L 462.10702 305.810526 
L 468.528193 305.810526 
L 474.949367 305.810526 
L 481.370541 305.810526 
L 487.791715 305.810526 
L 494.212888 305.810526 
L 500.634062 305.810526 
L 507.055236 305.810526 
L 513.47641 305.810526 
L 519.897583 305.810526 
L 526.318757 305.810526 
L 532.739931 305.810526 
L 539.161105 305.810526 
L 545.582278 305.810526 
L 552.003452 305.810526 
L 558.424626 305.810526 
L 564.8458 305.810526 
L 571.266974 305.810526 
L 577.688147 305.810526 
L 584.109321 305.810526 
L 590.530495 305.810526 
L 596.951669 305.810526 
L 603.372842 305.810526 
L 609.794016 305.810526 
L 616.21519 305.810526 
L 622.636364 305.810526 
L 622.636364 305.810526 
L 622.636364 305.810526 
L 616.21519 305.810526 
L 609.794016 305.810526 
L 603.372842 305.810526 
L 596.951669 305.810526 
L 590.530495 305.810526 
L 584.109321 305.810526 
L 577.688147 305.810526 
L 571.266974 305.810526 
L 564.8458 305.810526 
L 558.424626 305.810526 
L 552.003452 305.810526 
L 545.582278 305.810526 
L 539.161105 305.810526 
L 532.739931 305.810526 
L 526.318757 305.810526 
L 519.897583 305.810526 
L 513.47641 305.810526 
L 507.055236 305.810526 
L 500.634062 305.810526 
L 494.212888 305.810526 
L 487.791715 305.810526 
L 481.370541 305.810526 
L 474.949367 305.810526 
L 468.528193 305.810526 
L 462.10702 305.810526 
L 455.685846 305.810526 
L 449.264672 305.810526 
L 442.843498 305.810526 
L 436.422325 305.810526 
L 430.001151 305.810526 
L 423.579977 305.810526 
L 417.158803 305.810526 
L 410.737629 305.810526 
L 404.316456 305.810526 
L 397.895282 305.810526 
L 391.474108 305.810526 
L 385.052934 305.810526 
L 378.631761 305.810526 
L 372.210587 305.810526 
L 365.789413 305.810526 
L 359.368239 305.810526 
L 352.947066 305.810526 
L 346.525892 305.810526 
L 340.104718 305.810526 
L 333.683544 305.810526 
L 327.262371 305.810526 
L 320.841197 305.810526 
L 314.420023 305.810526 
L 307.998849 305.810526 
L 301.577675 305.810526 
L 295.156502 305.810349 
L 288.735328 305.804479 
L 282.314154 305.732738 
L 275.89298 305.404401 
L 269.471807 303.563916 
L 263.050633 302.682545 
L 256.629459 299.580034 
L 250.208285 294.842929 
L 243.787112 288.569966 
L 237.365938 282.758233 
L 230.944764 275.716307 
L 224.52359 268.586343 
L 218.102417 259.603398 
L 211.681243 249.765988 
L 205.260069 242.105369 
L 198.838895 245.767602 
L 192.417722 254.840648 
L 185.996548 267.787173 
L 179.575374 283.852773 
L 173.1542 300.83662 
L 166.733026 304.91677 
L 160.311853 305.743185 
L 153.890679 305.808593 
L 147.469505 305.810526 
L 141.048331 305.810526 
L 134.627158 305.810526 
L 128.205984 305.810526 
L 121.78481 305.810526 
L 115.363636 305.810526 
z
" clip-path="url(#p5de7b94ef3)" style="fill: #17becf; fill-opacity: 0.3"/>
   </g>
   <g id="PolyCollection_2">
    <path d="M 115.363636 305.810526 
L 115.363636 305.810526 
L 121.78481 305.810526 
L 128.205984 305.810526 
L 134.627158 305.810526 
L 141.048331 305.810526 
L 147.469505 305.810526 
L 153.890679 305.802084 
L 160.311853 305.515581 
L 166.733026 301.875627 
L 173.1542 283.6571 
L 179.575374 251.468931 
L 185.996548 209.606949 
L 192.417722 175.226653 
L 198.838895 151.865442 
L 205.260069 147.826112 
L 211.681243 166.554705 
L 218.102417 188.55917 
L 224.52359 201.280513 
L 230.944764 206.865564 
L 237.365938 210.192032 
L 243.787112 218.905865 
L 250.208285 231.91839 
L 256.629459 250.639728 
L 263.050633 269.883114 
L 269.471807 287.408142 
L 275.89298 297.193391 
L 282.314154 304.297206 
L 288.735328 305.697544 
L 295.156502 305.807299 
L 301.577675 305.810526 
L 307.998849 305.810526 
L 314.420023 305.810526 
L 320.841197 305.810526 
L 327.262371 305.810526 
L 333.683544 305.810526 
L 340.104718 305.810526 
L 346.525892 305.810526 
L 352.947066 305.810526 
L 359.368239 305.810526 
L 365.789413 305.810526 
L 372.210587 305.810526 
L 378.631761 305.810526 
L 385.052934 305.810526 
L 391.474108 305.810526 
L 397.895282 305.810526 
L 404.316456 305.810526 
L 410.737629 305.810526 
L 417.158803 305.810526 
L 423.579977 305.810526 
L 430.001151 305.810526 
L 436.422325 305.810526 
L 442.843498 305.810526 
L 449.264672 305.810526 
L 455.685846 305.810526 
L 462.10702 305.810526 
L 468.528193 305.810526 
L 474.949367 305.810526 
L 481.370541 305.810526 
L 487.791715 305.810526 
L 494.212888 305.810526 
L 500.634062 305.810526 
L 507.055236 305.810526 
L 513.47641 305.810526 
L 519.897583 305.810526 
L 526.318757 305.810526 
L 532.739931 305.810526 
L 539.161105 305.810526 
L 545.582278 305.810526 
L 552.003452 305.810526 
L 558.424626 305.810526 
L 564.8458 305.810526 
L 571.266974 305.810526 
L 577.688147 305.810526 
L 584.109321 305.810526 
L 590.530495 305.810526 
L 596.951669 305.810526 
L 603.372842 305.810526 
L 609.794016 305.810526 
L 616.21519 305.810526 
L 622.636364 305.810526 
L 622.636364 305.810526 
L 622.636364 305.810526 
L 616.21519 305.810526 
L 609.794016 305.810526 
L 603.372842 305.810526 
L 596.951669 305.810526 
L 590.530495 305.810526 
L 584.109321 305.810526 
L 577.688147 305.810526 
L 571.266974 305.810526 
L 564.8458 305.810526 
L 558.424626 305.810526 
L 552.003452 305.810526 
L 545.582278 305.810526 
L 539.161105 305.810526 
L 532.739931 305.810526 
L 526.318757 305.810526 
L 519.897583 305.810526 
L 513.47641 305.810526 
L 507.055236 305.810526 
L 500.634062 305.810526 
L 494.212888 305.810526 
L 487.791715 305.810526 
L 481.370541 305.810526 
L 474.949367 305.810526 
L 468.528193 305.810526 
L 462.10702 305.810526 
L 455.685846 305.810526 
L 449.264672 305.810526 
L 442.843498 305.810526 
L 436.422325 305.810526 
L 430.001151 305.810526 
L 423.579977 305.810526 
L 417.158803 305.810526 
L 410.737629 305.810526 
L 404.316456 305.810526 
L 397.895282 305.810526 
L 391.474108 305.810526 
L 385.052934 305.810526 
L 378.631761 305.810526 
L 372.210587 305.810526 
L 365.789413 305.810526 
L 359.368239 305.810526 
L 352.947066 305.810526 
L 346.525892 305.810526 
L 340.104718 305.810526 
L 333.683544 305.810526 
L 327.262371 305.810526 
L 320.841197 305.810526 
L 314.420023 305.810526 
L 307.998849 305.810526 
L 301.577675 305.810526 
L 295.156502 305.807299 
L 288.735328 305.697544 
L 282.314154 304.297206 
L 275.89298 297.193391 
L 269.471807 274.498129 
L 263.050633 248.455606 
L 256.629459 220.197542 
L 250.208285 191.972941 
L 243.787112 168.407711 
L 237.365938 157.3481 
L 230.944764 148.804134 
L 224.52359 139.008039 
L 218.102417 123.609279 
L 211.681243 103.883159 
L 205.260069 95.385023 
L 198.838895 110.353079 
L 192.417722 142.814065 
L 185.996548 185.727484 
L 179.575374 236.364585 
L 173.1542 283.6571 
L 166.733026 301.875627 
L 160.311853 305.515581 
L 153.890679 305.802084 
L 147.469505 305.810526 
L 141.048331 305.810526 
L 134.627158 305.810526 
L 128.205984 305.810526 
L 121.78481 305.810526 
L 115.363636 305.810526 
z
" clip-path="url(#p5de7b94ef3)" style="fill: #17becf; fill-opacity: 0.3"/>
   </g>
   <g id="PathCollection_1"/>
   <g id="PathCollection_2">
    <defs>
     <path id="C0_0_cb5da19224" d="M -3 3 
L 3 3 
L 3 -3 
L -3 -3 
z
"/>
    </defs>
    <g clip-path="url(#p5de7b94ef3)">
     <use xlink:href="#C0_0_cb5da19224" x="179.575374" y="57.789474" style="fill: #585858; stroke: #585858"/>
    </g>
    <g clip-path="url(#p5de7b94ef3)">
     <use xlink:href="#C0_0_cb5da19224" x="185.996548" y="57.789474" style="fill: #4a4a4a; stroke: #4a4a4a"/>
    </g>
    <g clip-path="url(#p5de7b94ef3)">
     <use xlink:href="#C0_0_cb5da19224" x="192.417722" y="57.789474" style="fill: #212121; stroke: #212121"/>
    </g>
    <g clip-path="url(#p5de7b94ef3)">
     <use xlink:href="#C0_0_cb5da19224" x="198.838895" y="57.789474" style="fill: #212121; stroke: #212121"/>
    </g>
    <g clip-path="url(#p5de7b94ef3)">
     <use xlink:href="#C0_0_cb5da19224" x="205.260069" y="57.789474" style="fill: #212121; stroke: #212121"/>
    </g>
    <g clip-path="url(#p5de7b94ef3)">
     <use xlink:href="#C0_0_cb5da19224" x="211.681243" y="57.789474" style="fill: #212121; stroke: #212121"/>
    </g>
    <g clip-path="url(#p5de7b94ef3)">
     <use xlink:href="#C0_0_cb5da19224" x="218.102417" y="57.789474" style="fill: #828282; stroke: #828282"/>
    </g>
    <g clip-path="url(#p5de7b94ef3)">
     <use xlink:href="#C0_0_cb5da19224" x="230.944764" y="57.789474" style="fill: #a2a2a2; stroke: #a2a2a2"/>
    </g>
    <g clip-path="url(#p5de7b94ef3)">
     <use xlink:href="#C0_0_cb5da19224" x="237.365938" y="57.789474" style="fill: #8a8a8a; stroke: #8a8a8a"/>
    </g>
    <g clip-path="url(#p5de7b94ef3)">
     <use xlink:href="#C0_0_cb5da19224" x="243.787112" y="57.789474" style="fill: #8a8a8a; stroke: #8a8a8a"/>
    </g>
    <g clip-path="url(#p5de7b94ef3)">
     <use xlink:href="#C0_0_cb5da19224" x="250.208285" y="57.789474" style="fill: #8a8a8a; stroke: #8a8a8a"/>
    </g>
    <g clip-path="url(#p5de7b94ef3)">
     <use xlink:href="#C0_0_cb5da19224" x="256.629459" y="57.789474" style="fill: #8a8a8a; stroke: #8a8a8a"/>
    </g>
    <g clip-path="url(#p5de7b94ef3)">
     <use xlink:href="#C0_0_cb5da19224" x="263.050633" y="57.789474" style="fill: #8a8a8a; stroke: #8a8a8a"/>
    </g>
   </g>
   <g id="matplotlib.axis_1">
    <g id="xtick_1">
     <g id="line2d_1">
      <defs>
       <path id="m0929c9efd6" d="M 0 0 
L 0 3.5 
" style="stroke: #000000; stroke-width: 0.8"/>
      </defs>
      <g>
       <use xlink:href="#m0929c9efd6" x="115.363636" y="320.4" style="stroke: #000000; stroke-width: 0.8"/>
      </g>
     </g>
     <g id="text_1">
      <!-- −2 -->
      <g transform="translate(107.992543 334.998438) scale(0.1 -0.1)">
       <defs>
        <path id="DejaVuSans-2212" d="M 678 2272 
L 4684 2272 
L 4684 1741 
L 678 1741 
L 678 2272 
z
" transform="scale(0.015625)"/>
        <path id="DejaVuSans-32" d="M 1228 531 
L 3431 531 
L 3431 0 
L 469 0 
L 469 531 
Q 828 903 1448 1529 
Q 2069 2156 2228 2338 
Q 2531 2678 2651 2914 
Q 2772 3150 2772 3378 
Q 2772 3750 2511 3984 
Q 2250 4219 1831 4219 
Q 1534 4219 1204 4116 
Q 875 4013 500 3803 
L 500 4441 
Q 881 4594 1212 4672 
Q 1544 4750 1819 4750 
Q 2544 4750 2975 4387 
Q 3406 4025 3406 3419 
Q 3406 3131 3298 2873 
Q 3191 2616 2906 2266 
Q 2828 2175 2409 1742 
Q 1991 1309 1228 531 
z
" transform="scale(0.015625)"/>
       </defs>
       <use xlink:href="#DejaVuSans-2212"/>
       <use xlink:href="#DejaVuSans-32" x="83.789062"/>
      </g>
     </g>
    </g>
    <g id="xtick_2">
     <g id="line2d_2">
      <g>
       <use xlink:href="#m0929c9efd6" x="179.575374" y="320.4" style="stroke: #000000; stroke-width: 0.8"/>
      </g>
     </g>
     <g id="text_2">
      <!-- −1 -->
      <g transform="translate(172.20428 334.998438) scale(0.1 -0.1)">
       <defs>
        <path id="DejaVuSans-31" d="M 794 531 
L 1825 531 
L 1825 4091 
L 703 3866 
L 703 4441 
L 1819 4666 
L 2450 4666 
L 2450 531 
L 3481 531 
L 3481 0 
L 794 0 
L 794 531 
z
" transform="scale(0.015625)"/>
       </defs>
       <use xlink:href="#DejaVuSans-2212"/>
       <use xlink:href="#DejaVuSans-31" x="83.789062"/>
      </g>
     </g>
    </g>
    <g id="xtick_3">
     <g id="line2d_3">
      <g>
       <use xlink:href="#m0929c9efd6" x="243.787112" y="320.4" style="stroke: #000000; stroke-width: 0.8"/>
      </g>
     </g>
     <g id="text_3">
      <!-- 0 -->
      <g transform="translate(240.605862 334.998438) scale(0.1 -0.1)">
       <defs>
        <path id="DejaVuSans-30" d="M 2034 4250 
Q 1547 4250 1301 3770 
Q 1056 3291 1056 2328 
Q 1056 1369 1301 889 
Q 1547 409 2034 409 
Q 2525 409 2770 889 
Q 3016 1369 3016 2328 
Q 3016 3291 2770 3770 
Q 2525 4250 2034 4250 
z
M 2034 4750 
Q 2819 4750 3233 4129 
Q 3647 3509 3647 2328 
Q 3647 1150 3233 529 
Q 2819 -91 2034 -91 
Q 1250 -91 836 529 
Q 422 1150 422 2328 
Q 422 3509 836 4129 
Q 1250 4750 2034 4750 
z
" transform="scale(0.015625)"/>
       </defs>
       <use xlink:href="#DejaVuSans-30"/>
      </g>
     </g>
    </g>
    <g id="xtick_4">
     <g id="line2d_4">
      <g>
       <use xlink:href="#m0929c9efd6" x="307.998849" y="320.4" style="stroke: #000000; stroke-width: 0.8"/>
      </g>
     </g>
     <g id="text_4">
      <!-- 1 -->
      <g transform="translate(304.817599 334.998438) scale(0.1 -0.1)">
       <use xlink:href="#DejaVuSans-31"/>
      </g>
     </g>
    </g>
    <g id="xtick_5">
     <g id="line2d_5">
      <g>
       <use xlink:href="#m0929c9efd6" x="372.210587" y="320.4" style="stroke: #000000; stroke-width: 0.8"/>
      </g>
     </g>
     <g id="text_5">
      <!-- 2 -->
      <g transform="translate(369.029337 334.998438) scale(0.1 -0.1)">
       <use xlink:href="#DejaVuSans-32"/>
      </g>
     </g>
    </g>
    <g id="xtick_6">
     <g id="line2d_6">
      <g>
       <use xlink:href="#m0929c9efd6" x="436.422325" y="320.4" style="stroke: #000000; stroke-width: 0.8"/>
      </g>
     </g>
     <g id="text_6">
      <!-- 3 -->
      <g transform="translate(433.241075 334.998438) scale(0.1 -0.1)">
       <defs>
        <path id="DejaVuSans-33" d="M 2597 2516 
Q 3050 2419 3304 2112 
Q 3559 1806 3559 1356 
Q 3559 666 3084 287 
Q 2609 -91 1734 -91 
Q 1441 -91 1130 -33 
Q 819 25 488 141 
L 488 750 
Q 750 597 1062 519 
Q 1375 441 1716 441 
Q 2309 441 2620 675 
Q 2931 909 2931 1356 
Q 2931 1769 2642 2001 
Q 2353 2234 1838 2234 
L 1294 2234 
L 1294 2753 
L 1863 2753 
Q 2328 2753 2575 2939 
Q 2822 3125 2822 3475 
Q 2822 3834 2567 4026 
Q 2313 4219 1838 4219 
Q 1578 4219 1281 4162 
Q 984 4106 628 3988 
L 628 4550 
Q 988 4650 1302 4700 
Q 1616 4750 1894 4750 
Q 2613 4750 3031 4423 
Q 3450 4097 3450 3541 
Q 3450 3153 3228 2886 
Q 3006 2619 2597 2516 
z
" transform="scale(0.015625)"/>
       </defs>
       <use xlink:href="#DejaVuSans-33"/>
      </g>
     </g>
    </g>
    <g id="xtick_7">
     <g id="line2d_7">
      <g>
       <use xlink:href="#m0929c9efd6" x="500.634062" y="320.4" style="stroke: #000000; stroke-width: 0.8"/>
      </g>
     </g>
     <g id="text_7">
      <!-- 4 -->
      <g transform="translate(497.452812 334.998438) scale(0.1 -0.1)">
       <defs>
        <path id="DejaVuSans-34" d="M 2419 4116 
L 825 1625 
L 2419 1625 
L 2419 4116 
z
M 2253 4666 
L 3047 4666 
L 3047 1625 
L 3713 1625 
L 3713 1100 
L 3047 1100 
L 3047 0 
L 2419 0 
L 2419 1100 
L 313 1100 
L 313 1709 
L 2253 4666 
z
" transform="scale(0.015625)"/>
       </defs>
       <use xlink:href="#DejaVuSans-34"/>
      </g>
     </g>
    </g>
    <g id="xtick_8">
     <g id="line2d_8">
      <g>
       <use xlink:href="#m0929c9efd6" x="564.8458" y="320.4" style="stroke: #000000; stroke-width: 0.8"/>
      </g>
     </g>
     <g id="text_8">
      <!-- 5 -->
      <g transform="translate(561.66455 334.998438) scale(0.1 -0.1)">
       <defs>
        <path id="DejaVuSans-35" d="M 691 4666 
L 3169 4666 
L 3169 4134 
L 1269 4134 
L 1269 2991 
Q 1406 3038 1543 3061 
Q 1681 3084 1819 3084 
Q 2600 3084 3056 2656 
Q 3513 2228 3513 1497 
Q 3513 744 3044 326 
Q 2575 -91 1722 -91 
Q 1428 -91 1123 -41 
Q 819 9 494 109 
L 494 744 
Q 775 591 1075 516 
Q 1375 441 1709 441 
Q 2250 441 2565 725 
Q 2881 1009 2881 1497 
Q 2881 1984 2565 2268 
Q 2250 2553 1709 2553 
Q 1456 2553 1204 2497 
Q 953 2441 691 2322 
L 691 4666 
z
" transform="scale(0.015625)"/>
       </defs>
       <use xlink:href="#DejaVuSans-35"/>
      </g>
     </g>
    </g>
    <g id="xtick_9">
     <g id="line2d_9">
      <g>
       <use xlink:href="#m0929c9efd6" x="629.057537" y="320.4" style="stroke: #000000; stroke-width: 0.8"/>
      </g>
     </g>
     <g id="text_9">
      <!-- 6 -->
      <g transform="translate(625.876287 334.998438) scale(0.1 -0.1)">
       <defs>
        <path id="DejaVuSans-36" d="M 2113 2584 
Q 1688 2584 1439 2293 
Q 1191 2003 1191 1497 
Q 1191 994 1439 701 
Q 1688 409 2113 409 
Q 2538 409 2786 701 
Q 3034 994 3034 1497 
Q 3034 2003 2786 2293 
Q 2538 2584 2113 2584 
z
M 3366 4563 
L 3366 3988 
Q 3128 4100 2886 4159 
Q 2644 4219 2406 4219 
Q 1781 4219 1451 3797 
Q 1122 3375 1075 2522 
Q 1259 2794 1537 2939 
Q 1816 3084 2150 3084 
Q 2853 3084 3261 2657 
Q 3669 2231 3669 1497 
Q 3669 778 3244 343 
Q 2819 -91 2113 -91 
Q 1303 -91 875 529 
Q 447 1150 447 2328 
Q 447 3434 972 4092 
Q 1497 4750 2381 4750 
Q 2619 4750 2861 4703 
Q 3103 4656 3366 4563 
z
" transform="scale(0.015625)"/>
       </defs>
       <use xlink:href="#DejaVuSans-36"/>
      </g>
     </g>
    </g>
   </g>
   <g id="matplotlib.axis_2">
    <g id="ytick_1">
     <g id="line2d_10">
      <defs>
       <path id="mfbe7297abc" d="M 0 0 
L -3.5 0 
" style="stroke: #000000; stroke-width: 0.8"/>
      </defs>
      <g>
       <use xlink:href="#mfbe7297abc" x="90" y="305.810526" style="stroke: #000000; stroke-width: 0.8"/>
      </g>
     </g>
     <g id="text_10">
      <!-- 0.0 -->
      <g transform="translate(67.096875 309.609745) scale(0.1 -0.1)">
       <defs>
        <path id="DejaVuSans-2e" d="M 684 794 
L 1344 794 
L 1344 0 
L 684 0 
L 684 794 
z
" transform="scale(0.015625)"/>
       </defs>
       <use xlink:href="#DejaVuSans-30"/>
       <use xlink:href="#DejaVuSans-2e" x="63.623047"/>
       <use xlink:href="#DejaVuSans-30" x="95.410156"/>
      </g>
     </g>
    </g>
    <g id="ytick_2">
     <g id="line2d_11">
      <g>
       <use xlink:href="#mfbe7297abc" x="90" y="247.452632" style="stroke: #000000; stroke-width: 0.8"/>
      </g>
     </g>
     <g id="text_11">
      <!-- 0.2 -->
      <g transform="translate(67.096875 251.25185) scale(0.1 -0.1)">
       <use xlink:href="#DejaVuSans-30"/>
       <use xlink:href="#DejaVuSans-2e" x="63.623047"/>
       <use xlink:href="#DejaVuSans-32" x="95.410156"/>
      </g>
     </g>
    </g>
    <g id="ytick_3">
     <g id="line2d_12">
      <g>
       <use xlink:href="#mfbe7297abc" x="90" y="189.094737" style="stroke: #000000; stroke-width: 0.8"/>
      </g>
     </g>
     <g id="text_12">
      <!-- 0.4 -->
      <g transform="translate(67.096875 192.893956) scale(0.1 -0.1)">
       <use xlink:href="#DejaVuSans-30"/>
       <use xlink:href="#DejaVuSans-2e" x="63.623047"/>
       <use xlink:href="#DejaVuSans-34" x="95.410156"/>
      </g>
     </g>
    </g>
    <g id="ytick_4">
     <g id="line2d_13">
      <g>
       <use xlink:href="#mfbe7297abc" x="90" y="130.736842" style="stroke: #000000; stroke-width: 0.8"/>
      </g>
     </g>
     <g id="text_13">
      <!-- 0.6 -->
      <g transform="translate(67.096875 134.536061) scale(0.1 -0.1)">
       <use xlink:href="#DejaVuSans-30"/>
       <use xlink:href="#DejaVuSans-2e" x="63.623047"/>
       <use xlink:href="#DejaVuSans-36" x="95.410156"/>
      </g>
     </g>
    </g>
    <g id="ytick_5">
     <g id="line2d_14">
      <g>
       <use xlink:href="#mfbe7297abc" x="90" y="72.378947" style="stroke: #000000; stroke-width: 0.8"/>
      </g>
     </g>
     <g id="text_14">
      <!-- 0.8 -->
      <g transform="translate(67.096875 76.178166) scale(0.1 -0.1)">
       <defs>
        <path id="DejaVuSans-38" d="M 2034 2216 
Q 1584 2216 1326 1975 
Q 1069 1734 1069 1313 
Q 1069 891 1326 650 
Q 1584 409 2034 409 
Q 2484 409 2743 651 
Q 3003 894 3003 1313 
Q 3003 1734 2745 1975 
Q 2488 2216 2034 2216 
z
M 1403 2484 
Q 997 2584 770 2862 
Q 544 3141 544 3541 
Q 544 4100 942 4425 
Q 1341 4750 2034 4750 
Q 2731 4750 3128 4425 
Q 3525 4100 3525 3541 
Q 3525 3141 3298 2862 
Q 3072 2584 2669 2484 
Q 3125 2378 3379 2068 
Q 3634 1759 3634 1313 
Q 3634 634 3220 271 
Q 2806 -91 2034 -91 
Q 1263 -91 848 271 
Q 434 634 434 1313 
Q 434 1759 690 2068 
Q 947 2378 1403 2484 
z
M 1172 3481 
Q 1172 3119 1398 2916 
Q 1625 2713 2034 2713 
Q 2441 2713 2670 2916 
Q 2900 3119 2900 3481 
Q 2900 3844 2670 4047 
Q 2441 4250 2034 4250 
Q 1625 4250 1398 4047 
Q 1172 3844 1172 3481 
z
" transform="scale(0.015625)"/>
       </defs>
       <use xlink:href="#DejaVuSans-30"/>
       <use xlink:href="#DejaVuSans-2e" x="63.623047"/>
       <use xlink:href="#DejaVuSans-38" x="95.410156"/>
      </g>
     </g>
    </g>
   </g>
   <g id="line2d_15">
    <path d="M 115.363636 305.810526 
L 121.78481 305.810526 
L 128.205984 305.810526 
L 134.627158 305.810526 
L 141.048331 305.810526 
L 147.469505 305.810526 
L 153.890679 305.808593 
L 160.311853 305.743185 
L 166.733026 304.91677 
L 173.1542 300.83662 
L 179.575374 292.199671 
L 185.996548 282.655145 
L 192.417722 275.232105 
L 198.838895 270.538644 
L 205.260069 270.211013 
L 211.681243 274.956413 
L 218.102417 281.154207 
L 224.52359 286.124238 
L 230.944764 290.079624 
L 237.365938 293.605857 
L 243.787112 296.866073 
L 250.208285 299.886402 
L 256.629459 302.333077 
L 263.050633 303.891697 
L 269.471807 304.773068 
L 275.89298 305.404401 
L 282.314154 305.732738 
L 288.735328 305.804479 
L 295.156502 305.810349 
L 301.577675 305.810526 
L 307.998849 305.810526 
L 314.420023 305.810526 
L 320.841197 305.810526 
L 327.262371 305.810526 
L 333.683544 305.810526 
L 340.104718 305.810526 
L 346.525892 305.810526 
L 352.947066 305.810526 
L 359.368239 305.810526 
L 365.789413 305.810526 
L 372.210587 305.810526 
L 378.631761 305.810526 
L 385.052934 305.810526 
L 391.474108 305.810526 
L 397.895282 305.810526 
L 404.316456 305.810526 
L 410.737629 305.810526 
L 417.158803 305.810526 
L 423.579977 305.810526 
L 430.001151 305.810526 
L 436.422325 305.810526 
L 442.843498 305.810526 
L 449.264672 305.810526 
L 455.685846 305.810526 
L 462.10702 305.810526 
L 468.528193 305.810526 
L 474.949367 305.810526 
L 481.370541 305.810526 
L 487.791715 305.810526 
L 494.212888 305.810526 
L 500.634062 305.810526 
L 507.055236 305.810526 
L 513.47641 305.810526 
L 519.897583 305.810526 
L 526.318757 305.810526 
L 532.739931 305.810526 
L 539.161105 305.810526 
L 545.582278 305.810526 
L 552.003452 305.810526 
L 558.424626 305.810526 
L 564.8458 305.810526 
L 571.266974 305.810526 
L 577.688147 305.810526 
L 584.109321 305.810526 
L 590.530495 305.810526 
L 596.951669 305.810526 
L 603.372842 305.810526 
L 609.794016 305.810526 
L 616.21519 305.810526 
L 622.636364 305.810526 
" clip-path="url(#p5de7b94ef3)" style="fill: none; stroke-dasharray: 3,4.95; stroke-dashoffset: 0; stroke: #17becf; stroke-width: 3"/>
   </g>
   <g id="line2d_16">
    <path d="M 115.363636 305.810526 
L 121.78481 305.810526 
L 128.205984 305.810526 
L 134.627158 305.810526 
L 141.048331 305.810526 
L 147.469505 305.810526 
L 153.890679 305.802084 
L 160.311853 305.515581 
L 166.733026 301.875627 
L 173.1542 283.6571 
L 179.575374 243.916758 
L 185.996548 197.667216 
L 192.417722 159.020359 
L 198.838895 131.10926 
L 205.260069 121.605568 
L 211.681243 135.218932 
L 218.102417 156.084224 
L 224.52359 170.144276 
L 230.944764 177.834849 
L 237.365938 183.770066 
L 243.787112 193.656788 
L 250.208285 211.945665 
L 256.629459 235.418635 
L 263.050633 259.16936 
L 269.471807 280.953135 
L 275.89298 297.193391 
L 282.314154 304.297206 
L 288.735328 305.697544 
L 295.156502 305.807299 
L 301.577675 305.810526 
L 307.998849 305.810526 
L 314.420023 305.810526 
L 320.841197 305.810526 
L 327.262371 305.810526 
L 333.683544 305.810526 
L 340.104718 305.810526 
L 346.525892 305.810526 
L 352.947066 305.810526 
L 359.368239 305.810526 
L 365.789413 305.810526 
L 372.210587 305.810526 
L 378.631761 305.810526 
L 385.052934 305.810526 
L 391.474108 305.810526 
L 397.895282 305.810526 
L 404.316456 305.810526 
L 410.737629 305.810526 
L 417.158803 305.810526 
L 423.579977 305.810526 
L 430.001151 305.810526 
L 436.422325 305.810526 
L 442.843498 305.810526 
L 449.264672 305.810526 
L 455.685846 305.810526 
L 462.10702 305.810526 
L 468.528193 305.810526 
L 474.949367 305.810526 
L 481.370541 305.810526 
L 487.791715 305.810526 
L 494.212888 305.810526 
L 500.634062 305.810526 
L 507.055236 305.810526 
L 513.47641 305.810526 
L 519.897583 305.810526 
L 526.318757 305.810526 
L 532.739931 305.810526 
L 539.161105 305.810526 
L 545.582278 305.810526 
L 552.003452 305.810526 
L 558.424626 305.810526 
L 564.8458 305.810526 
L 571.266974 305.810526 
L 577.688147 305.810526 
L 584.109321 305.810526 
L 590.530495 305.810526 
L 596.951669 305.810526 
L 603.372842 305.810526 
L 609.794016 305.810526 
L 616.21519 305.810526 
L 622.636364 305.810526 
" clip-path="url(#p5de7b94ef3)" style="fill: none; stroke: #17becf; stroke-width: 3; stroke-linecap: square"/>
   </g>
   <g id="patch_3">
    <path d="M 90 320.4 
L 90 43.2 
" style="fill: none; stroke: #000000; stroke-width: 0.8; stroke-linejoin: miter; stroke-linecap: square"/>
   </g>
   <g id="patch_4">
    <path d="M 648 320.4 
L 648 43.2 
" style="fill: none; stroke: #000000; stroke-width: 0.8; stroke-linejoin: miter; stroke-linecap: square"/>
   </g>
   <g id="patch_5">
    <path d="M 90 320.4 
L 648 320.4 
" style="fill: none; stroke: #000000; stroke-width: 0.8; stroke-linejoin: miter; stroke-linecap: square"/>
   </g>
   <g id="patch_6">
    <path d="M 90 43.2 
L 648 43.2 
" style="fill: none; stroke: #000000; stroke-width: 0.8; stroke-linejoin: miter; stroke-linecap: square"/>
   </g>
  </g>
 </g>
 <defs>
  <clipPath id="p5de7b94ef3">
   <rect x="90" y="43.2" width="558" height="277.2"/>
  </clipPath>
 </defs>
</svg>
